<mxfile host="app.diagrams.net" modified="2021-01-28T03:06:56.749Z" agent="5.0 (Macintosh; Intel Mac OS X 10_15_1) AppleWebKit/537.36 (KHTML, like Gecko) Chrome/87.0.4280.141 Safari/537.36" etag="PjSz98CK9kt2zLYEnAe6" version="14.2.6" type="github">
  <diagram id="C5RBs43oDa-KdzZeNtuy" name="Page-1">
    <mxGraphModel dx="1854" dy="2328" grid="1" gridSize="10" guides="1" tooltips="1" connect="1" arrows="1" fold="1" page="1" pageScale="1" pageWidth="827" pageHeight="1169" background="none" math="0" shadow="0">
      <root>
        <mxCell id="WIyWlLk6GJQsqaUBKTNV-0" />
        <mxCell id="WIyWlLk6GJQsqaUBKTNV-1" parent="WIyWlLk6GJQsqaUBKTNV-0" />
        <mxCell id="pRF9uQ5kpAVEQRunsSqT-449" value="" style="edgeStyle=orthogonalEdgeStyle;rounded=0;orthogonalLoop=1;jettySize=auto;html=1;" parent="WIyWlLk6GJQsqaUBKTNV-1" source="zkfFHV4jXpPFQw0GAbJ--6" edge="1">
          <mxGeometry relative="1" as="geometry">
            <mxPoint x="1400" y="151" as="targetPoint" />
            <Array as="points">
              <mxPoint x="1400" y="201" />
              <mxPoint x="1400" y="201" />
            </Array>
          </mxGeometry>
        </mxCell>
        <mxCell id="zkfFHV4jXpPFQw0GAbJ--6" value="UserController(用户信息控制类)&#xa;" style="swimlane;fontStyle=0;align=center;verticalAlign=top;childLayout=stackLayout;horizontal=1;startSize=26;horizontalStack=0;resizeParent=1;resizeLast=0;collapsible=1;marginBottom=0;rounded=0;shadow=0;strokeWidth=1;noLabel=0;resizable=1;movable=1;backgroundOutline=0;editable=1;moveCells=0;pointerEvents=1;deletable=1;cloneable=1;rotatable=1;glass=0;fillColor=#d5e8d4;strokeColor=#82b366;" parent="WIyWlLk6GJQsqaUBKTNV-1" vertex="1">
          <mxGeometry x="1298" y="190" width="200" height="280" as="geometry">
            <mxRectangle x="130" y="380" width="160" height="26" as="alternateBounds" />
          </mxGeometry>
        </mxCell>
        <mxCell id="pRF9uQ5kpAVEQRunsSqT-10" value="+listUsers()                ::result" style="text;align=left;verticalAlign=top;spacingLeft=4;spacingRight=4;overflow=hidden;rotatable=0;points=[[0,0.5],[1,0.5]];portConstraint=eastwest;rounded=0;shadow=0;html=0;" parent="zkfFHV4jXpPFQw0GAbJ--6" vertex="1">
          <mxGeometry y="26" width="200" height="28" as="geometry" />
        </mxCell>
        <mxCell id="pRF9uQ5kpAVEQRunsSqT-3" value="+listUsersBySex()      ::result" style="text;align=left;verticalAlign=top;spacingLeft=4;spacingRight=4;overflow=hidden;rotatable=0;points=[[0,0.5],[1,0.5]];portConstraint=eastwest;rounded=0;shadow=0;html=0;" parent="zkfFHV4jXpPFQw0GAbJ--6" vertex="1">
          <mxGeometry y="54" width="200" height="28" as="geometry" />
        </mxCell>
        <mxCell id="pRF9uQ5kpAVEQRunsSqT-2" value="+checkUserInfo()       ::result" style="text;align=left;verticalAlign=top;spacingLeft=4;spacingRight=4;overflow=hidden;rotatable=0;points=[[0,0.5],[1,0.5]];portConstraint=eastwest;rounded=0;shadow=0;html=0;" parent="zkfFHV4jXpPFQw0GAbJ--6" vertex="1">
          <mxGeometry y="82" width="200" height="28" as="geometry" />
        </mxCell>
        <mxCell id="pRF9uQ5kpAVEQRunsSqT-4" value="+updateUserStatus() ::result" style="text;align=left;verticalAlign=top;spacingLeft=4;spacingRight=4;overflow=hidden;rotatable=0;points=[[0,0.5],[1,0.5]];portConstraint=eastwest;rounded=0;shadow=0;html=0;" parent="zkfFHV4jXpPFQw0GAbJ--6" vertex="1">
          <mxGeometry y="110" width="200" height="28" as="geometry" />
        </mxCell>
        <mxCell id="pRF9uQ5kpAVEQRunsSqT-5" value="+resetPassword()      ::result" style="text;align=left;verticalAlign=top;spacingLeft=4;spacingRight=4;overflow=hidden;rotatable=0;points=[[0,0.5],[1,0.5]];portConstraint=eastwest;rounded=0;shadow=0;html=0;" parent="zkfFHV4jXpPFQw0GAbJ--6" vertex="1">
          <mxGeometry y="138" width="200" height="28" as="geometry" />
        </mxCell>
        <mxCell id="pRF9uQ5kpAVEQRunsSqT-6" value="+editUser()                ::result" style="text;align=left;verticalAlign=top;spacingLeft=4;spacingRight=4;overflow=hidden;rotatable=0;points=[[0,0.5],[1,0.5]];portConstraint=eastwest;rounded=0;shadow=0;html=0;" parent="zkfFHV4jXpPFQw0GAbJ--6" vertex="1">
          <mxGeometry y="166" width="200" height="28" as="geometry" />
        </mxCell>
        <mxCell id="pRF9uQ5kpAVEQRunsSqT-8" value="+updateInfo()            ::result" style="text;align=left;verticalAlign=top;spacingLeft=4;spacingRight=4;overflow=hidden;rotatable=0;points=[[0,0.5],[1,0.5]];portConstraint=eastwest;rounded=0;shadow=0;html=0;" parent="zkfFHV4jXpPFQw0GAbJ--6" vertex="1">
          <mxGeometry y="194" width="200" height="28" as="geometry" />
        </mxCell>
        <mxCell id="pRF9uQ5kpAVEQRunsSqT-7" value="+deleteUser()            ::result " style="text;align=left;verticalAlign=top;spacingLeft=4;spacingRight=4;overflow=hidden;rotatable=0;points=[[0,0.5],[1,0.5]];portConstraint=eastwest;rounded=0;shadow=0;html=0;" parent="zkfFHV4jXpPFQw0GAbJ--6" vertex="1">
          <mxGeometry y="222" width="200" height="28" as="geometry" />
        </mxCell>
        <mxCell id="pRF9uQ5kpAVEQRunsSqT-9" value="+searchUser()           ::result" style="text;align=left;verticalAlign=top;spacingLeft=4;spacingRight=4;overflow=hidden;rotatable=0;points=[[0,0.5],[1,0.5]];portConstraint=eastwest;rounded=0;shadow=0;html=0;" parent="zkfFHV4jXpPFQw0GAbJ--6" vertex="1">
          <mxGeometry y="250" width="200" height="28" as="geometry" />
        </mxCell>
        <mxCell id="pRF9uQ5kpAVEQRunsSqT-442" value="" style="edgeStyle=orthogonalEdgeStyle;rounded=0;orthogonalLoop=1;jettySize=auto;html=1;entryX=0.464;entryY=0.001;entryDx=0;entryDy=0;entryPerimeter=0;" parent="WIyWlLk6GJQsqaUBKTNV-1" target="pRF9uQ5kpAVEQRunsSqT-186" edge="1">
          <mxGeometry relative="1" as="geometry">
            <mxPoint x="1530" y="690" as="targetPoint" />
            <Array as="points">
              <mxPoint x="617" y="540" />
            </Array>
            <mxPoint x="617" y="550" as="sourcePoint" />
          </mxGeometry>
        </mxCell>
        <mxCell id="pRF9uQ5kpAVEQRunsSqT-427" value="" style="edgeStyle=orthogonalEdgeStyle;rounded=0;orthogonalLoop=1;jettySize=auto;html=1;entryX=0.5;entryY=0;entryDx=0;entryDy=0;" parent="WIyWlLk6GJQsqaUBKTNV-1" source="pRF9uQ5kpAVEQRunsSqT-25" target="pRF9uQ5kpAVEQRunsSqT-294" edge="1">
          <mxGeometry relative="1" as="geometry">
            <mxPoint x="1128" y="244" as="targetPoint" />
            <Array as="points">
              <mxPoint x="640" y="20" />
              <mxPoint x="640" y="20" />
            </Array>
          </mxGeometry>
        </mxCell>
        <mxCell id="pRF9uQ5kpAVEQRunsSqT-25" value="RoleController(用户信息控制类)&#xa;" style="swimlane;fontStyle=0;align=center;verticalAlign=top;childLayout=stackLayout;horizontal=1;startSize=26;horizontalStack=0;resizeParent=1;resizeLast=0;collapsible=1;marginBottom=0;rounded=0;shadow=0;strokeWidth=1;noLabel=0;resizable=1;movable=1;backgroundOutline=0;editable=1;moveCells=0;pointerEvents=1;deletable=1;cloneable=1;rotatable=1;glass=0;fillColor=#d5e8d4;strokeColor=#82b366;" parent="WIyWlLk6GJQsqaUBKTNV-1" vertex="1">
          <mxGeometry x="538" y="-212" width="200" height="200" as="geometry">
            <mxRectangle x="130" y="380" width="160" height="26" as="alternateBounds" />
          </mxGeometry>
        </mxCell>
        <mxCell id="pRF9uQ5kpAVEQRunsSqT-26" value="+updateRoleStatus()        ::result" style="text;align=left;verticalAlign=top;spacingLeft=4;spacingRight=4;overflow=hidden;rotatable=0;points=[[0,0.5],[1,0.5]];portConstraint=eastwest;rounded=0;shadow=0;html=0;" parent="pRF9uQ5kpAVEQRunsSqT-25" vertex="1">
          <mxGeometry y="26" width="200" height="28" as="geometry" />
        </mxCell>
        <mxCell id="pRF9uQ5kpAVEQRunsSqT-27" value="+listRoles()                       ::result" style="text;align=left;verticalAlign=top;spacingLeft=4;spacingRight=4;overflow=hidden;rotatable=0;points=[[0,0.5],[1,0.5]];portConstraint=eastwest;rounded=0;shadow=0;html=0;" parent="pRF9uQ5kpAVEQRunsSqT-25" vertex="1">
          <mxGeometry y="54" width="200" height="28" as="geometry" />
        </mxCell>
        <mxCell id="pRF9uQ5kpAVEQRunsSqT-28" value="+editRole()                       ::result" style="text;align=left;verticalAlign=top;spacingLeft=4;spacingRight=4;overflow=hidden;rotatable=0;points=[[0,0.5],[1,0.5]];portConstraint=eastwest;rounded=0;shadow=0;html=0;" parent="pRF9uQ5kpAVEQRunsSqT-25" vertex="1">
          <mxGeometry y="82" width="200" height="28" as="geometry" />
        </mxCell>
        <mxCell id="pRF9uQ5kpAVEQRunsSqT-29" value="+addRole()                       ::result" style="text;align=left;verticalAlign=top;spacingLeft=4;spacingRight=4;overflow=hidden;rotatable=0;points=[[0,0.5],[1,0.5]];portConstraint=eastwest;rounded=0;shadow=0;html=0;" parent="pRF9uQ5kpAVEQRunsSqT-25" vertex="1">
          <mxGeometry y="110" width="200" height="28" as="geometry" />
        </mxCell>
        <mxCell id="pRF9uQ5kpAVEQRunsSqT-30" value="+deleteRole()                   ::result" style="text;align=left;verticalAlign=top;spacingLeft=4;spacingRight=4;overflow=hidden;rotatable=0;points=[[0,0.5],[1,0.5]];portConstraint=eastwest;rounded=0;shadow=0;html=0;" parent="pRF9uQ5kpAVEQRunsSqT-25" vertex="1">
          <mxGeometry y="138" width="200" height="28" as="geometry" />
        </mxCell>
        <mxCell id="pRF9uQ5kpAVEQRunsSqT-31" value="+listPerms()                     ::result" style="text;align=left;verticalAlign=top;spacingLeft=4;spacingRight=4;overflow=hidden;rotatable=0;points=[[0,0.5],[1,0.5]];portConstraint=eastwest;rounded=0;shadow=0;html=0;" parent="pRF9uQ5kpAVEQRunsSqT-25" vertex="1">
          <mxGeometry y="166" width="200" height="28" as="geometry" />
        </mxCell>
        <mxCell id="pRF9uQ5kpAVEQRunsSqT-359" value="" style="edgeStyle=orthogonalEdgeStyle;rounded=0;orthogonalLoop=1;jettySize=auto;html=1;entryX=0.5;entryY=1;entryDx=0;entryDy=0;" parent="WIyWlLk6GJQsqaUBKTNV-1" source="pRF9uQ5kpAVEQRunsSqT-72" target="pRF9uQ5kpAVEQRunsSqT-212" edge="1">
          <mxGeometry relative="1" as="geometry">
            <mxPoint x="973.0000000000002" y="1006" as="targetPoint" />
          </mxGeometry>
        </mxCell>
        <mxCell id="pRF9uQ5kpAVEQRunsSqT-72" value="DirectoryController(目录控制类)&#xa;" style="swimlane;fontStyle=0;align=center;verticalAlign=top;childLayout=stackLayout;horizontal=1;startSize=26;horizontalStack=0;resizeParent=1;resizeLast=0;collapsible=1;marginBottom=0;rounded=0;shadow=0;strokeWidth=1;noLabel=0;resizable=1;movable=1;backgroundOutline=0;editable=1;moveCells=0;pointerEvents=1;deletable=1;cloneable=1;rotatable=1;glass=0;fillColor=#d5e8d4;strokeColor=#82b366;" parent="WIyWlLk6GJQsqaUBKTNV-1" vertex="1">
          <mxGeometry x="820" y="1068" width="306" height="474" as="geometry">
            <mxRectangle x="130" y="380" width="160" height="26" as="alternateBounds" />
          </mxGeometry>
        </mxCell>
        <mxCell id="pRF9uQ5kpAVEQRunsSqT-73" value="+listForAdmin()                          ::List&lt;Directory&gt;" style="text;align=left;verticalAlign=top;spacingLeft=4;spacingRight=4;overflow=hidden;rotatable=0;points=[[0,0.5],[1,0.5]];portConstraint=eastwest;rounded=0;shadow=0;html=0;" parent="pRF9uQ5kpAVEQRunsSqT-72" vertex="1">
          <mxGeometry y="26" width="306" height="28" as="geometry" />
        </mxCell>
        <mxCell id="pRF9uQ5kpAVEQRunsSqT-74" value="+list()                                          ::result" style="text;align=left;verticalAlign=top;spacingLeft=4;spacingRight=4;overflow=hidden;rotatable=0;points=[[0,0.5],[1,0.5]];portConstraint=eastwest;rounded=0;shadow=0;html=0;" parent="pRF9uQ5kpAVEQRunsSqT-72" vertex="1">
          <mxGeometry y="54" width="306" height="28" as="geometry" />
        </mxCell>
        <mxCell id="pRF9uQ5kpAVEQRunsSqT-75" value="+uploadDirectory()                     ::result" style="text;align=left;verticalAlign=top;spacingLeft=4;spacingRight=4;overflow=hidden;rotatable=0;points=[[0,0.5],[1,0.5]];portConstraint=eastwest;rounded=0;shadow=0;html=0;" parent="pRF9uQ5kpAVEQRunsSqT-72" vertex="1">
          <mxGeometry y="82" width="306" height="28" as="geometry" />
        </mxCell>
        <mxCell id="pRF9uQ5kpAVEQRunsSqT-129" value="+setVisible()                               ::result" style="text;align=left;verticalAlign=top;spacingLeft=4;spacingRight=4;overflow=hidden;rotatable=0;points=[[0,0.5],[1,0.5]];portConstraint=eastwest;rounded=0;shadow=0;html=0;" parent="pRF9uQ5kpAVEQRunsSqT-72" vertex="1">
          <mxGeometry y="110" width="306" height="28" as="geometry" />
        </mxCell>
        <mxCell id="pRF9uQ5kpAVEQRunsSqT-76" value="+addNewDirectory()                   ::SuccessResult" style="text;align=left;verticalAlign=top;spacingLeft=4;spacingRight=4;overflow=hidden;rotatable=0;points=[[0,0.5],[1,0.5]];portConstraint=eastwest;rounded=0;shadow=0;html=0;" parent="pRF9uQ5kpAVEQRunsSqT-72" vertex="1">
          <mxGeometry y="138" width="306" height="28" as="geometry" />
        </mxCell>
        <mxCell id="pRF9uQ5kpAVEQRunsSqT-77" value="+editExistingDirectory()              ::SuccessResult" style="text;align=left;verticalAlign=top;spacingLeft=4;spacingRight=4;overflow=hidden;rotatable=0;points=[[0,0.5],[1,0.5]];portConstraint=eastwest;rounded=0;shadow=0;html=0;" parent="pRF9uQ5kpAVEQRunsSqT-72" vertex="1">
          <mxGeometry y="166" width="306" height="28" as="geometry" />
        </mxCell>
        <mxCell id="pRF9uQ5kpAVEQRunsSqT-79" value="+removeFormParentNote()        ::SuccessResult" style="text;align=left;verticalAlign=top;spacingLeft=4;spacingRight=4;overflow=hidden;rotatable=0;points=[[0,0.5],[1,0.5]];portConstraint=eastwest;rounded=0;shadow=0;html=0;" parent="pRF9uQ5kpAVEQRunsSqT-72" vertex="1">
          <mxGeometry y="194" width="306" height="28" as="geometry" />
        </mxCell>
        <mxCell id="pRF9uQ5kpAVEQRunsSqT-80" value="+getContentById()                      ::SuccessResult " style="text;align=left;verticalAlign=top;spacingLeft=4;spacingRight=4;overflow=hidden;rotatable=0;points=[[0,0.5],[1,0.5]];portConstraint=eastwest;rounded=0;shadow=0;html=0;" parent="pRF9uQ5kpAVEQRunsSqT-72" vertex="1">
          <mxGeometry y="222" width="306" height="28" as="geometry" />
        </mxCell>
        <mxCell id="pRF9uQ5kpAVEQRunsSqT-123" value="+settingInfo()                              ::SuccessResult" style="text;align=left;verticalAlign=top;spacingLeft=4;spacingRight=4;overflow=hidden;rotatable=0;points=[[0,0.5],[1,0.5]];portConstraint=eastwest;rounded=0;shadow=0;html=0;" parent="pRF9uQ5kpAVEQRunsSqT-72" vertex="1">
          <mxGeometry y="250" width="306" height="28" as="geometry" />
        </mxCell>
        <mxCell id="pRF9uQ5kpAVEQRunsSqT-124" value="+versionHistory()                        ::SuccessResult" style="text;align=left;verticalAlign=top;spacingLeft=4;spacingRight=4;overflow=hidden;rotatable=0;points=[[0,0.5],[1,0.5]];portConstraint=eastwest;rounded=0;shadow=0;html=0;" parent="pRF9uQ5kpAVEQRunsSqT-72" vertex="1">
          <mxGeometry y="278" width="306" height="28" as="geometry" />
        </mxCell>
        <mxCell id="pRF9uQ5kpAVEQRunsSqT-125" value="+getDirectoryByDepth()              ::SuccessResult" style="text;align=left;verticalAlign=top;spacingLeft=4;spacingRight=4;overflow=hidden;rotatable=0;points=[[0,0.5],[1,0.5]];portConstraint=eastwest;rounded=0;shadow=0;html=0;" parent="pRF9uQ5kpAVEQRunsSqT-72" vertex="1">
          <mxGeometry y="306" width="306" height="28" as="geometry" />
        </mxCell>
        <mxCell id="pRF9uQ5kpAVEQRunsSqT-126" value="+getDirectoryByDepthGreaterThan()    ::SuccessResult" style="text;align=left;verticalAlign=top;spacingLeft=4;spacingRight=4;overflow=hidden;rotatable=0;points=[[0,0.5],[1,0.5]];portConstraint=eastwest;rounded=0;shadow=0;html=0;" parent="pRF9uQ5kpAVEQRunsSqT-72" vertex="1">
          <mxGeometry y="334" width="306" height="28" as="geometry" />
        </mxCell>
        <mxCell id="pRF9uQ5kpAVEQRunsSqT-122" value="+getFamilyTreeByAnyIdInTree()   ::Iterable&lt;Directory&gt;" style="text;align=left;verticalAlign=top;spacingLeft=4;spacingRight=4;overflow=hidden;rotatable=0;points=[[0,0.5],[1,0.5]];portConstraint=eastwest;rounded=0;shadow=0;html=0;" parent="pRF9uQ5kpAVEQRunsSqT-72" vertex="1">
          <mxGeometry y="362" width="306" height="28" as="geometry" />
        </mxCell>
        <mxCell id="pRF9uQ5kpAVEQRunsSqT-121" value="+getInfoExcelFile()                     ::ResposeEnty&lt;byte[]&gt;" style="text;align=left;verticalAlign=top;spacingLeft=4;spacingRight=4;overflow=hidden;rotatable=0;points=[[0,0.5],[1,0.5]];portConstraint=eastwest;rounded=0;shadow=0;html=0;" parent="pRF9uQ5kpAVEQRunsSqT-72" vertex="1">
          <mxGeometry y="390" width="306" height="28" as="geometry" />
        </mxCell>
        <mxCell id="pRF9uQ5kpAVEQRunsSqT-81" value="+zipFileOfVersion()                    ::ResposeEnty&lt;byte[]&gt;" style="text;align=left;verticalAlign=top;spacingLeft=4;spacingRight=4;overflow=hidden;rotatable=0;points=[[0,0.5],[1,0.5]];portConstraint=eastwest;rounded=0;shadow=0;html=0;" parent="pRF9uQ5kpAVEQRunsSqT-72" vertex="1">
          <mxGeometry y="418" width="306" height="28" as="geometry" />
        </mxCell>
        <mxCell id="pRF9uQ5kpAVEQRunsSqT-361" value="" style="edgeStyle=orthogonalEdgeStyle;rounded=0;orthogonalLoop=1;jettySize=auto;html=1;entryX=0.5;entryY=1;entryDx=0;entryDy=0;" parent="WIyWlLk6GJQsqaUBKTNV-1" source="pRF9uQ5kpAVEQRunsSqT-130" target="pRF9uQ5kpAVEQRunsSqT-245" edge="1">
          <mxGeometry relative="1" as="geometry">
            <mxPoint x="1374.0000000000005" y="1006" as="targetPoint" />
          </mxGeometry>
        </mxCell>
        <mxCell id="pRF9uQ5kpAVEQRunsSqT-130" value="FileController(文件控制类)&#xa;" style="swimlane;fontStyle=0;align=center;verticalAlign=top;childLayout=stackLayout;horizontal=1;startSize=26;horizontalStack=0;resizeParent=1;resizeLast=0;collapsible=1;marginBottom=0;rounded=0;shadow=0;strokeWidth=1;noLabel=0;resizable=1;movable=1;backgroundOutline=0;editable=1;moveCells=0;pointerEvents=1;deletable=1;cloneable=1;rotatable=1;glass=0;fillColor=#d5e8d4;strokeColor=#82b366;" parent="WIyWlLk6GJQsqaUBKTNV-1" vertex="1">
          <mxGeometry x="1226" y="1068" width="296" height="474" as="geometry">
            <mxRectangle x="130" y="380" width="160" height="26" as="alternateBounds" />
          </mxGeometry>
        </mxCell>
        <mxCell id="pRF9uQ5kpAVEQRunsSqT-146" value="+listForAdmin()                               ::List&lt;File&gt;" style="text;align=left;verticalAlign=top;spacingLeft=4;spacingRight=4;overflow=hidden;rotatable=0;points=[[0,0.5],[1,0.5]];portConstraint=eastwest;rounded=0;shadow=0;html=0;" parent="pRF9uQ5kpAVEQRunsSqT-130" vertex="1">
          <mxGeometry y="26" width="296" height="28" as="geometry" />
        </mxCell>
        <mxCell id="pRF9uQ5kpAVEQRunsSqT-131" value="+list()                                              ::result" style="text;align=left;verticalAlign=top;spacingLeft=4;spacingRight=4;overflow=hidden;rotatable=0;points=[[0,0.5],[1,0.5]];portConstraint=eastwest;rounded=0;shadow=0;html=0;" parent="pRF9uQ5kpAVEQRunsSqT-130" vertex="1">
          <mxGeometry y="54" width="296" height="28" as="geometry" />
        </mxCell>
        <mxCell id="pRF9uQ5kpAVEQRunsSqT-135" value="+setVisible()                                    ::result" style="text;align=left;verticalAlign=top;spacingLeft=4;spacingRight=4;overflow=hidden;rotatable=0;points=[[0,0.5],[1,0.5]];portConstraint=eastwest;rounded=0;shadow=0;html=0;" parent="pRF9uQ5kpAVEQRunsSqT-130" vertex="1">
          <mxGeometry y="82" width="296" height="28" as="geometry" />
        </mxCell>
        <mxCell id="pRF9uQ5kpAVEQRunsSqT-132" value="+handleFileUpload()                        ::SuccessResult" style="text;align=left;verticalAlign=top;spacingLeft=4;spacingRight=4;overflow=hidden;rotatable=0;points=[[0,0.5],[1,0.5]];portConstraint=eastwest;rounded=0;shadow=0;html=0;" parent="pRF9uQ5kpAVEQRunsSqT-130" vertex="1">
          <mxGeometry y="110" width="296" height="28" as="geometry" />
        </mxCell>
        <mxCell id="pRF9uQ5kpAVEQRunsSqT-133" value="+addFileRecord()                             ::SuccessResult" style="text;align=left;verticalAlign=top;spacingLeft=4;spacingRight=4;overflow=hidden;rotatable=0;points=[[0,0.5],[1,0.5]];portConstraint=eastwest;rounded=0;shadow=0;html=0;" parent="pRF9uQ5kpAVEQRunsSqT-130" vertex="1">
          <mxGeometry y="138" width="296" height="28" as="geometry" />
        </mxCell>
        <mxCell id="pRF9uQ5kpAVEQRunsSqT-134" value="+addFileVersion()                             ::SuccessResult" style="text;align=left;verticalAlign=top;spacingLeft=4;spacingRight=4;overflow=hidden;rotatable=0;points=[[0,0.5],[1,0.5]];portConstraint=eastwest;rounded=0;shadow=0;html=0;" parent="pRF9uQ5kpAVEQRunsSqT-130" vertex="1">
          <mxGeometry y="166" width="296" height="24" as="geometry" />
        </mxCell>
        <mxCell id="pRF9uQ5kpAVEQRunsSqT-147" value="+activeExistsVersionOfFile()            ::SuccessResult" style="text;align=left;verticalAlign=top;spacingLeft=4;spacingRight=4;overflow=hidden;rotatable=0;points=[[0,0.5],[1,0.5]];portConstraint=eastwest;rounded=0;shadow=0;html=0;" parent="pRF9uQ5kpAVEQRunsSqT-130" vertex="1">
          <mxGeometry y="190" width="296" height="28" as="geometry" />
        </mxCell>
        <mxCell id="pRF9uQ5kpAVEQRunsSqT-138" value="+removeDirectoryRelationship()      ::SuccessResult " style="text;align=left;verticalAlign=top;spacingLeft=4;spacingRight=4;overflow=hidden;rotatable=0;points=[[0,0.5],[1,0.5]];portConstraint=eastwest;rounded=0;shadow=0;html=0;" parent="pRF9uQ5kpAVEQRunsSqT-130" vertex="1">
          <mxGeometry y="218" width="296" height="28" as="geometry" />
        </mxCell>
        <mxCell id="pRF9uQ5kpAVEQRunsSqT-139" value="+getVersionTreeByFileId()               ::SuccessResult" style="text;align=left;verticalAlign=top;spacingLeft=4;spacingRight=4;overflow=hidden;rotatable=0;points=[[0,0.5],[1,0.5]];portConstraint=eastwest;rounded=0;shadow=0;html=0;" parent="pRF9uQ5kpAVEQRunsSqT-130" vertex="1">
          <mxGeometry y="246" width="296" height="28" as="geometry" />
        </mxCell>
        <mxCell id="pRF9uQ5kpAVEQRunsSqT-140" value="+versionHistory()                             ::SuccessResult" style="text;align=left;verticalAlign=top;spacingLeft=4;spacingRight=4;overflow=hidden;rotatable=0;points=[[0,0.5],[1,0.5]];portConstraint=eastwest;rounded=0;shadow=0;html=0;" parent="pRF9uQ5kpAVEQRunsSqT-130" vertex="1">
          <mxGeometry y="274" width="296" height="28" as="geometry" />
        </mxCell>
        <mxCell id="pRF9uQ5kpAVEQRunsSqT-141" value="+shareFileWithOtherProject()         ::SuccessResult" style="text;align=left;verticalAlign=top;spacingLeft=4;spacingRight=4;overflow=hidden;rotatable=0;points=[[0,0.5],[1,0.5]];portConstraint=eastwest;rounded=0;shadow=0;html=0;" parent="pRF9uQ5kpAVEQRunsSqT-130" vertex="1">
          <mxGeometry y="302" width="296" height="28" as="geometry" />
        </mxCell>
        <mxCell id="pRF9uQ5kpAVEQRunsSqT-142" value="+download()                            ::ResposeEnty&lt;byte[]&gt;" style="text;align=left;verticalAlign=top;spacingLeft=4;spacingRight=4;overflow=hidden;rotatable=0;points=[[0,0.5],[1,0.5]];portConstraint=eastwest;rounded=0;shadow=0;html=0;" parent="pRF9uQ5kpAVEQRunsSqT-130" vertex="1">
          <mxGeometry y="330" width="296" height="28" as="geometry" />
        </mxCell>
        <mxCell id="pRF9uQ5kpAVEQRunsSqT-143" value="+downloadPro()                      ::ResposeEnty&lt;byte[]&gt;" style="text;align=left;verticalAlign=top;spacingLeft=4;spacingRight=4;overflow=hidden;rotatable=0;points=[[0,0.5],[1,0.5]];portConstraint=eastwest;rounded=0;shadow=0;html=0;" parent="pRF9uQ5kpAVEQRunsSqT-130" vertex="1">
          <mxGeometry y="358" width="296" height="28" as="geometry" />
        </mxCell>
        <mxCell id="pRF9uQ5kpAVEQRunsSqT-136" value="+getInfoExcelFile()                 ::ResposeEnty&lt;byte[]&gt;" style="text;align=left;verticalAlign=top;spacingLeft=4;spacingRight=4;overflow=hidden;rotatable=0;points=[[0,0.5],[1,0.5]];portConstraint=eastwest;rounded=0;shadow=0;html=0;" parent="pRF9uQ5kpAVEQRunsSqT-130" vertex="1">
          <mxGeometry y="386" width="296" height="28" as="geometry" />
        </mxCell>
        <mxCell id="pRF9uQ5kpAVEQRunsSqT-144" value="+getAttachment()                   ::ResposeEnty&lt;byte[]&gt;" style="text;align=left;verticalAlign=top;spacingLeft=4;spacingRight=4;overflow=hidden;rotatable=0;points=[[0,0.5],[1,0.5]];portConstraint=eastwest;rounded=0;shadow=0;html=0;" parent="pRF9uQ5kpAVEQRunsSqT-130" vertex="1">
          <mxGeometry y="414" width="296" height="28" as="geometry" />
        </mxCell>
        <mxCell id="pRF9uQ5kpAVEQRunsSqT-423" value="" style="edgeStyle=orthogonalEdgeStyle;rounded=0;orthogonalLoop=1;jettySize=auto;html=1;exitX=0.5;exitY=1;exitDx=0;exitDy=0;entryX=0.5;entryY=0;entryDx=0;entryDy=0;" parent="WIyWlLk6GJQsqaUBKTNV-1" source="pRF9uQ5kpAVEQRunsSqT-149" target="pRF9uQ5kpAVEQRunsSqT-245" edge="1">
          <mxGeometry relative="1" as="geometry">
            <mxPoint x="1374" y="822" as="sourcePoint" />
            <mxPoint x="1374" y="878" as="targetPoint" />
          </mxGeometry>
        </mxCell>
        <mxCell id="pRF9uQ5kpAVEQRunsSqT-149" value="InfoUploadController(信息上传控制类)&#xa;" style="swimlane;fontStyle=0;align=center;verticalAlign=top;childLayout=stackLayout;horizontal=1;startSize=26;horizontalStack=0;resizeParent=1;resizeLast=0;collapsible=1;marginBottom=0;rounded=0;shadow=0;strokeWidth=1;noLabel=0;resizable=1;movable=1;backgroundOutline=0;editable=1;moveCells=0;pointerEvents=1;deletable=1;cloneable=1;rotatable=1;glass=0;fillColor=#d5e8d4;strokeColor=#82b366;" parent="WIyWlLk6GJQsqaUBKTNV-1" vertex="1">
          <mxGeometry x="1228" y="630" width="294" height="210" as="geometry">
            <mxRectangle x="130" y="380" width="160" height="26" as="alternateBounds" />
          </mxGeometry>
        </mxCell>
        <mxCell id="pRF9uQ5kpAVEQRunsSqT-150" value="+updateProjectInfoByExcel()          ::result" style="text;align=left;verticalAlign=top;spacingLeft=4;spacingRight=4;overflow=hidden;rotatable=0;points=[[0,0.5],[1,0.5]];portConstraint=eastwest;rounded=0;shadow=0;html=0;" parent="pRF9uQ5kpAVEQRunsSqT-149" vertex="1">
          <mxGeometry y="26" width="294" height="28" as="geometry" />
        </mxCell>
        <mxCell id="pRF9uQ5kpAVEQRunsSqT-151" value="+updateSubjectInfoByExcel()         ::result" style="text;align=left;verticalAlign=top;spacingLeft=4;spacingRight=4;overflow=hidden;rotatable=0;points=[[0,0.5],[1,0.5]];portConstraint=eastwest;rounded=0;shadow=0;html=0;" parent="pRF9uQ5kpAVEQRunsSqT-149" vertex="1">
          <mxGeometry y="54" width="294" height="28" as="geometry" />
        </mxCell>
        <mxCell id="pRF9uQ5kpAVEQRunsSqT-152" value="+updateTaskInfoByExcel()              ::result" style="text;align=left;verticalAlign=top;spacingLeft=4;spacingRight=4;overflow=hidden;rotatable=0;points=[[0,0.5],[1,0.5]];portConstraint=eastwest;rounded=0;shadow=0;html=0;" parent="pRF9uQ5kpAVEQRunsSqT-149" vertex="1">
          <mxGeometry y="82" width="294" height="28" as="geometry" />
        </mxCell>
        <mxCell id="pRF9uQ5kpAVEQRunsSqT-153" value="+updateSystemInfoByExcel()         ::result" style="text;align=left;verticalAlign=top;spacingLeft=4;spacingRight=4;overflow=hidden;rotatable=0;points=[[0,0.5],[1,0.5]];portConstraint=eastwest;rounded=0;shadow=0;html=0;" parent="pRF9uQ5kpAVEQRunsSqT-149" vertex="1">
          <mxGeometry y="110" width="294" height="28" as="geometry" />
        </mxCell>
        <mxCell id="pRF9uQ5kpAVEQRunsSqT-154" value="+updateDirectoryInfoByExcel()       ::result" style="text;align=left;verticalAlign=top;spacingLeft=4;spacingRight=4;overflow=hidden;rotatable=0;points=[[0,0.5],[1,0.5]];portConstraint=eastwest;rounded=0;shadow=0;html=0;" parent="pRF9uQ5kpAVEQRunsSqT-149" vertex="1">
          <mxGeometry y="138" width="294" height="28" as="geometry" />
        </mxCell>
        <mxCell id="pRF9uQ5kpAVEQRunsSqT-155" value="+updateMultipleFilesInfoByExcel()  ::result" style="text;align=left;verticalAlign=top;spacingLeft=4;spacingRight=4;overflow=hidden;rotatable=0;points=[[0,0.5],[1,0.5]];portConstraint=eastwest;rounded=0;shadow=0;html=0;" parent="pRF9uQ5kpAVEQRunsSqT-149" vertex="1">
          <mxGeometry y="166" width="294" height="28" as="geometry" />
        </mxCell>
        <mxCell id="q9hhWlFy8ux0YNahk4jD-17" value="" style="edgeStyle=orthogonalEdgeStyle;rounded=0;orthogonalLoop=1;jettySize=auto;html=1;entryX=0;entryY=0;entryDx=0;entryDy=0;entryPerimeter=0;" edge="1" parent="WIyWlLk6GJQsqaUBKTNV-1" source="pRF9uQ5kpAVEQRunsSqT-159" target="pRF9uQ5kpAVEQRunsSqT-205">
          <mxGeometry relative="1" as="geometry">
            <mxPoint x="628" y="1371.9999999999995" as="targetPoint" />
            <Array as="points">
              <mxPoint x="480" y="1160" />
            </Array>
          </mxGeometry>
        </mxCell>
        <mxCell id="pRF9uQ5kpAVEQRunsSqT-159" value="MenuController(菜单控制类)&#xa;" style="swimlane;fontStyle=0;align=center;verticalAlign=top;childLayout=stackLayout;horizontal=1;startSize=26;horizontalStack=0;resizeParent=1;resizeLast=0;collapsible=1;marginBottom=0;rounded=0;shadow=0;strokeWidth=1;noLabel=0;resizable=1;movable=1;backgroundOutline=0;editable=1;moveCells=0;pointerEvents=1;deletable=1;cloneable=1;rotatable=1;glass=0;fillColor=#d5e8d4;strokeColor=#82b366;" parent="WIyWlLk6GJQsqaUBKTNV-1" vertex="1">
          <mxGeometry x="110" y="1110" width="236" height="100" as="geometry">
            <mxRectangle x="130" y="380" width="160" height="26" as="alternateBounds" />
          </mxGeometry>
        </mxCell>
        <mxCell id="pRF9uQ5kpAVEQRunsSqT-160" value="+menu()                                 ::result" style="text;align=left;verticalAlign=top;spacingLeft=4;spacingRight=4;overflow=hidden;rotatable=0;points=[[0,0.5],[1,0.5]];portConstraint=eastwest;rounded=0;shadow=0;html=0;" parent="pRF9uQ5kpAVEQRunsSqT-159" vertex="1">
          <mxGeometry y="26" width="236" height="28" as="geometry" />
        </mxCell>
        <mxCell id="pRF9uQ5kpAVEQRunsSqT-161" value="+listAllMenus()                       ::result" style="text;align=left;verticalAlign=top;spacingLeft=4;spacingRight=4;overflow=hidden;rotatable=0;points=[[0,0.5],[1,0.5]];portConstraint=eastwest;rounded=0;shadow=0;html=0;" parent="pRF9uQ5kpAVEQRunsSqT-159" vertex="1">
          <mxGeometry y="54" width="236" height="28" as="geometry" />
        </mxCell>
        <mxCell id="q9hhWlFy8ux0YNahk4jD-13" value="" style="edgeStyle=orthogonalEdgeStyle;rounded=0;orthogonalLoop=1;jettySize=auto;html=1;entryX=0;entryY=0.536;entryDx=0;entryDy=0;entryPerimeter=0;" edge="1" parent="WIyWlLk6GJQsqaUBKTNV-1" source="pRF9uQ5kpAVEQRunsSqT-166" target="pRF9uQ5kpAVEQRunsSqT-199">
          <mxGeometry relative="1" as="geometry">
            <mxPoint x="628" y="1371.9999999999995" as="targetPoint" />
          </mxGeometry>
        </mxCell>
        <mxCell id="pRF9uQ5kpAVEQRunsSqT-166" value="PathController(目录、文件相同地方控制类)&#xa;" style="swimlane;fontStyle=0;align=center;verticalAlign=top;childLayout=stackLayout;horizontal=1;startSize=26;horizontalStack=0;resizeParent=1;resizeLast=0;collapsible=1;marginBottom=0;rounded=0;shadow=0;strokeWidth=1;noLabel=0;resizable=1;movable=1;backgroundOutline=0;editable=1;moveCells=0;pointerEvents=1;deletable=1;cloneable=1;rotatable=1;glass=0;fillColor=#d5e8d4;strokeColor=#82b366;" parent="WIyWlLk6GJQsqaUBKTNV-1" vertex="1">
          <mxGeometry x="110" y="997" width="236" height="60" as="geometry">
            <mxRectangle x="130" y="380" width="160" height="26" as="alternateBounds" />
          </mxGeometry>
        </mxCell>
        <mxCell id="pRF9uQ5kpAVEQRunsSqT-167" value="+pathSetting()                        ::result" style="text;align=left;verticalAlign=top;spacingLeft=4;spacingRight=4;overflow=hidden;rotatable=0;points=[[0,0.5],[1,0.5]];portConstraint=eastwest;rounded=0;shadow=0;html=0;" parent="pRF9uQ5kpAVEQRunsSqT-166" vertex="1">
          <mxGeometry y="26" width="236" height="28" as="geometry" />
        </mxCell>
        <mxCell id="pRF9uQ5kpAVEQRunsSqT-457" value="" style="edgeStyle=orthogonalEdgeStyle;rounded=0;orthogonalLoop=1;jettySize=auto;html=1;" parent="WIyWlLk6GJQsqaUBKTNV-1" source="pRF9uQ5kpAVEQRunsSqT-169" edge="1">
          <mxGeometry relative="1" as="geometry">
            <mxPoint x="970" y="882" as="targetPoint" />
            <Array as="points">
              <mxPoint x="970" y="830" />
              <mxPoint x="970" y="830" />
            </Array>
          </mxGeometry>
        </mxCell>
        <mxCell id="pRF9uQ5kpAVEQRunsSqT-169" value="ProjectController(菜单控制类)&#xa;" style="swimlane;fontStyle=0;align=center;verticalAlign=top;childLayout=stackLayout;horizontal=1;startSize=26;horizontalStack=0;resizeParent=1;resizeLast=0;collapsible=1;marginBottom=0;rounded=0;shadow=0;strokeWidth=1;noLabel=0;resizable=1;movable=1;backgroundOutline=0;editable=1;moveCells=0;pointerEvents=1;deletable=1;cloneable=1;rotatable=1;glass=0;fillColor=#d5e8d4;strokeColor=#82b366;" parent="WIyWlLk6GJQsqaUBKTNV-1" vertex="1">
          <mxGeometry x="840" y="658" width="312" height="120" as="geometry">
            <mxRectangle x="130" y="380" width="160" height="26" as="alternateBounds" />
          </mxGeometry>
        </mxCell>
        <mxCell id="pRF9uQ5kpAVEQRunsSqT-170" value="+addNewDirectory()                        ::SuccessResult" style="text;align=left;verticalAlign=top;spacingLeft=4;spacingRight=4;overflow=hidden;rotatable=0;points=[[0,0.5],[1,0.5]];portConstraint=eastwest;rounded=0;shadow=0;html=0;" parent="pRF9uQ5kpAVEQRunsSqT-169" vertex="1">
          <mxGeometry y="26" width="312" height="28" as="geometry" />
        </mxCell>
        <mxCell id="pRF9uQ5kpAVEQRunsSqT-171" value="+getAllProjects()                              ::Iterable&lt;Directory&gt;" style="text;align=left;verticalAlign=top;spacingLeft=4;spacingRight=4;overflow=hidden;rotatable=0;points=[[0,0.5],[1,0.5]];portConstraint=eastwest;rounded=0;shadow=0;html=0;" parent="pRF9uQ5kpAVEQRunsSqT-169" vertex="1">
          <mxGeometry y="54" width="312" height="28" as="geometry" />
        </mxCell>
        <mxCell id="pRF9uQ5kpAVEQRunsSqT-172" value="+getFamilyTreeByAnyIdInTree()      ::Iterable&lt;Directory&gt;" style="text;align=left;verticalAlign=top;spacingLeft=4;spacingRight=4;overflow=hidden;rotatable=0;points=[[0,0.5],[1,0.5]];portConstraint=eastwest;rounded=0;shadow=0;html=0;" parent="pRF9uQ5kpAVEQRunsSqT-169" vertex="1">
          <mxGeometry y="82" width="312" height="28" as="geometry" />
        </mxCell>
        <mxCell id="q9hhWlFy8ux0YNahk4jD-9" value="" style="edgeStyle=orthogonalEdgeStyle;rounded=0;orthogonalLoop=1;jettySize=auto;html=1;entryX=0.001;entryY=0.083;entryDx=0;entryDy=0;entryPerimeter=0;" edge="1" parent="WIyWlLk6GJQsqaUBKTNV-1" source="pRF9uQ5kpAVEQRunsSqT-179" target="pRF9uQ5kpAVEQRunsSqT-195">
          <mxGeometry relative="1" as="geometry">
            <Array as="points">
              <mxPoint x="380" y="902" />
              <mxPoint x="380" y="902" />
            </Array>
          </mxGeometry>
        </mxCell>
        <mxCell id="pRF9uQ5kpAVEQRunsSqT-179" value="SearchController(检索控制类)&#xa;" style="swimlane;fontStyle=0;align=center;verticalAlign=top;childLayout=stackLayout;horizontal=1;startSize=26;horizontalStack=0;resizeParent=1;resizeLast=0;collapsible=1;marginBottom=0;rounded=0;shadow=0;strokeWidth=1;noLabel=0;resizable=1;movable=1;backgroundOutline=0;editable=1;moveCells=0;pointerEvents=1;deletable=1;cloneable=1;rotatable=1;glass=0;fillColor=#d5e8d4;strokeColor=#82b366;" parent="WIyWlLk6GJQsqaUBKTNV-1" vertex="1">
          <mxGeometry x="110" y="870" width="236" height="60" as="geometry">
            <mxRectangle x="130" y="380" width="160" height="26" as="alternateBounds" />
          </mxGeometry>
        </mxCell>
        <mxCell id="pRF9uQ5kpAVEQRunsSqT-180" value="+searchResult()          ::SearchResult" style="text;align=left;verticalAlign=top;spacingLeft=4;spacingRight=4;overflow=hidden;rotatable=0;points=[[0,0.5],[1,0.5]];portConstraint=eastwest;rounded=0;shadow=0;html=0;" parent="pRF9uQ5kpAVEQRunsSqT-179" vertex="1">
          <mxGeometry y="26" width="236" height="28" as="geometry" />
        </mxCell>
        <mxCell id="pRF9uQ5kpAVEQRunsSqT-459" value="" style="edgeStyle=orthogonalEdgeStyle;rounded=0;orthogonalLoop=1;jettySize=auto;html=1;exitX=1;exitY=0.5;exitDx=0;exitDy=0;entryX=-0.001;entryY=-0.02;entryDx=0;entryDy=0;entryPerimeter=0;" parent="WIyWlLk6GJQsqaUBKTNV-1" source="pRF9uQ5kpAVEQRunsSqT-440" target="pRF9uQ5kpAVEQRunsSqT-171" edge="1">
          <mxGeometry relative="1" as="geometry">
            <mxPoint x="944" y="1153" as="targetPoint" />
            <Array as="points">
              <mxPoint x="776" y="711" />
            </Array>
          </mxGeometry>
        </mxCell>
        <mxCell id="pRF9uQ5kpAVEQRunsSqT-186" value="Path(目录、文件实体继承类)&#xa;" style="swimlane;fontStyle=0;align=center;verticalAlign=top;childLayout=stackLayout;horizontal=1;startSize=26;horizontalStack=0;resizeParent=1;resizeLast=0;collapsible=1;marginBottom=0;rounded=0;shadow=0;strokeWidth=1;noLabel=0;resizable=1;movable=1;backgroundOutline=0;editable=1;moveCells=0;pointerEvents=1;deletable=1;cloneable=1;rotatable=1;glass=0;fillColor=#dae8fc;strokeColor=#6c8ebf;" parent="WIyWlLk6GJQsqaUBKTNV-1" vertex="1">
          <mxGeometry x="480" y="630" width="296" height="780" as="geometry">
            <mxRectangle x="130" y="380" width="160" height="26" as="alternateBounds" />
          </mxGeometry>
        </mxCell>
        <mxCell id="pRF9uQ5kpAVEQRunsSqT-187" value="+id                                              ::Long" style="text;align=left;verticalAlign=top;spacingLeft=4;spacingRight=4;overflow=hidden;rotatable=0;points=[[0,0.5],[1,0.5]];portConstraint=eastwest;rounded=0;shadow=0;html=0;" parent="pRF9uQ5kpAVEQRunsSqT-186" vertex="1">
          <mxGeometry y="26" width="296" height="28" as="geometry" />
        </mxCell>
        <mxCell id="pRF9uQ5kpAVEQRunsSqT-440" value="+name                                        ::String" style="text;align=left;verticalAlign=top;spacingLeft=4;spacingRight=4;overflow=hidden;rotatable=0;points=[[0,0.5],[1,0.5]];portConstraint=eastwest;rounded=0;shadow=0;html=0;" parent="pRF9uQ5kpAVEQRunsSqT-186" vertex="1">
          <mxGeometry y="54" width="296" height="26" as="geometry" />
        </mxCell>
        <mxCell id="pRF9uQ5kpAVEQRunsSqT-188" value="+name                                        ::String" style="text;align=left;verticalAlign=top;spacingLeft=4;spacingRight=4;overflow=hidden;rotatable=0;points=[[0,0.5],[1,0.5]];portConstraint=eastwest;rounded=0;shadow=0;html=0;" parent="pRF9uQ5kpAVEQRunsSqT-186" vertex="1">
          <mxGeometry y="80" width="296" height="26" as="geometry" />
        </mxCell>
        <mxCell id="pRF9uQ5kpAVEQRunsSqT-189" value="+visible                                       ::Boolean" style="text;align=left;verticalAlign=top;spacingLeft=4;spacingRight=4;overflow=hidden;rotatable=0;points=[[0,0.5],[1,0.5]];portConstraint=eastwest;rounded=0;shadow=0;html=0;" parent="pRF9uQ5kpAVEQRunsSqT-186" vertex="1">
          <mxGeometry y="106" width="296" height="28" as="geometry" />
        </mxCell>
        <mxCell id="pRF9uQ5kpAVEQRunsSqT-190" value="+selfCode                                   ::String" style="text;align=left;verticalAlign=top;spacingLeft=4;spacingRight=4;overflow=hidden;rotatable=0;points=[[0,0.5],[1,0.5]];portConstraint=eastwest;rounded=0;shadow=0;html=0;" parent="pRF9uQ5kpAVEQRunsSqT-186" vertex="1">
          <mxGeometry y="134" width="296" height="28" as="geometry" />
        </mxCell>
        <mxCell id="pRF9uQ5kpAVEQRunsSqT-191" value="+version                                     ::String" style="text;align=left;verticalAlign=top;spacingLeft=4;spacingRight=4;overflow=hidden;rotatable=0;points=[[0,0.5],[1,0.5]];portConstraint=eastwest;rounded=0;shadow=0;html=0;" parent="pRF9uQ5kpAVEQRunsSqT-186" vertex="1">
          <mxGeometry y="162" width="296" height="28" as="geometry" />
        </mxCell>
        <mxCell id="pRF9uQ5kpAVEQRunsSqT-192" value="+note                                          ::String" style="text;align=left;verticalAlign=top;spacingLeft=4;spacingRight=4;overflow=hidden;rotatable=0;points=[[0,0.5],[1,0.5]];portConstraint=eastwest;rounded=0;shadow=0;html=0;" parent="pRF9uQ5kpAVEQRunsSqT-186" vertex="1">
          <mxGeometry y="190" width="296" height="24" as="geometry" />
        </mxCell>
        <mxCell id="pRF9uQ5kpAVEQRunsSqT-193" value="+instruction                                 ::String" style="text;align=left;verticalAlign=top;spacingLeft=4;spacingRight=4;overflow=hidden;rotatable=0;points=[[0,0.5],[1,0.5]];portConstraint=eastwest;rounded=0;shadow=0;html=0;" parent="pRF9uQ5kpAVEQRunsSqT-186" vertex="1">
          <mxGeometry y="214" width="296" height="28" as="geometry" />
        </mxCell>
        <mxCell id="pRF9uQ5kpAVEQRunsSqT-194" value="+attachment                               ::String" style="text;align=left;verticalAlign=top;spacingLeft=4;spacingRight=4;overflow=hidden;rotatable=0;points=[[0,0.5],[1,0.5]];portConstraint=eastwest;rounded=0;shadow=0;html=0;" parent="pRF9uQ5kpAVEQRunsSqT-186" vertex="1">
          <mxGeometry y="242" width="296" height="28" as="geometry" />
        </mxCell>
        <mxCell id="pRF9uQ5kpAVEQRunsSqT-195" value="+flag                                           ::Integer" style="text;align=left;verticalAlign=top;spacingLeft=4;spacingRight=4;overflow=hidden;rotatable=0;points=[[0,0.5],[1,0.5]];portConstraint=eastwest;rounded=0;shadow=0;html=0;" parent="pRF9uQ5kpAVEQRunsSqT-186" vertex="1">
          <mxGeometry y="270" width="296" height="28" as="geometry" />
        </mxCell>
        <mxCell id="pRF9uQ5kpAVEQRunsSqT-196" value="+path                                          ::String" style="text;align=left;verticalAlign=top;spacingLeft=4;spacingRight=4;overflow=hidden;rotatable=0;points=[[0,0.5],[1,0.5]];portConstraint=eastwest;rounded=0;shadow=0;html=0;" parent="pRF9uQ5kpAVEQRunsSqT-186" vertex="1">
          <mxGeometry y="298" width="296" height="28" as="geometry" />
        </mxCell>
        <mxCell id="pRF9uQ5kpAVEQRunsSqT-197" value="+mark                                ::Constant.DirectoryMark" style="text;align=left;verticalAlign=top;spacingLeft=4;spacingRight=4;overflow=hidden;rotatable=0;points=[[0,0.5],[1,0.5]];portConstraint=eastwest;rounded=0;shadow=0;html=0;" parent="pRF9uQ5kpAVEQRunsSqT-186" vertex="1">
          <mxGeometry y="326" width="296" height="28" as="geometry" />
        </mxCell>
        <mxCell id="pRF9uQ5kpAVEQRunsSqT-198" value="+depth                                         ::Integer" style="text;align=left;verticalAlign=top;spacingLeft=4;spacingRight=4;overflow=hidden;rotatable=0;points=[[0,0.5],[1,0.5]];portConstraint=eastwest;rounded=0;shadow=0;html=0;" parent="pRF9uQ5kpAVEQRunsSqT-186" vertex="1">
          <mxGeometry y="354" width="296" height="28" as="geometry" />
        </mxCell>
        <mxCell id="pRF9uQ5kpAVEQRunsSqT-199" value="+created                                      ::Date" style="text;align=left;verticalAlign=top;spacingLeft=4;spacingRight=4;overflow=hidden;rotatable=0;points=[[0,0.5],[1,0.5]];portConstraint=eastwest;rounded=0;shadow=0;html=0;" parent="pRF9uQ5kpAVEQRunsSqT-186" vertex="1">
          <mxGeometry y="382" width="296" height="28" as="geometry" />
        </mxCell>
        <mxCell id="pRF9uQ5kpAVEQRunsSqT-200" value="+updated                                     ::Date" style="text;align=left;verticalAlign=top;spacingLeft=4;spacingRight=4;overflow=hidden;rotatable=0;points=[[0,0.5],[1,0.5]];portConstraint=eastwest;rounded=0;shadow=0;html=0;" parent="pRF9uQ5kpAVEQRunsSqT-186" vertex="1">
          <mxGeometry y="410" width="296" height="28" as="geometry" />
        </mxCell>
        <mxCell id="pRF9uQ5kpAVEQRunsSqT-201" value="+parent                                        ::Directory" style="text;align=left;verticalAlign=top;spacingLeft=4;spacingRight=4;overflow=hidden;rotatable=0;points=[[0,0.5],[1,0.5]];portConstraint=eastwest;rounded=0;shadow=0;html=0;" parent="pRF9uQ5kpAVEQRunsSqT-186" vertex="1">
          <mxGeometry y="438" width="296" height="28" as="geometry" />
        </mxCell>
        <mxCell id="pRF9uQ5kpAVEQRunsSqT-202" value="+pathInfo                                     ::PathInfo" style="text;align=left;verticalAlign=top;spacingLeft=4;spacingRight=4;overflow=hidden;rotatable=0;points=[[0,0.5],[1,0.5]];portConstraint=eastwest;rounded=0;shadow=0;html=0;" parent="pRF9uQ5kpAVEQRunsSqT-186" vertex="1">
          <mxGeometry y="466" width="296" height="28" as="geometry" />
        </mxCell>
        <mxCell id="pRF9uQ5kpAVEQRunsSqT-203" value="+fixedInfo                                    ::fixedDirectoryInfo" style="text;align=left;verticalAlign=top;spacingLeft=4;spacingRight=4;overflow=hidden;rotatable=0;points=[[0,0.5],[1,0.5]];portConstraint=eastwest;rounded=0;shadow=0;html=0;" parent="pRF9uQ5kpAVEQRunsSqT-186" vertex="1">
          <mxGeometry y="494" width="296" height="28" as="geometry" />
        </mxCell>
        <mxCell id="pRF9uQ5kpAVEQRunsSqT-204" value="+projectId                                    ::Long" style="text;align=left;verticalAlign=top;spacingLeft=4;spacingRight=4;overflow=hidden;rotatable=0;points=[[0,0.5],[1,0.5]];portConstraint=eastwest;rounded=0;shadow=0;html=0;" parent="pRF9uQ5kpAVEQRunsSqT-186" vertex="1">
          <mxGeometry y="522" width="296" height="28" as="geometry" />
        </mxCell>
        <mxCell id="pRF9uQ5kpAVEQRunsSqT-205" value="+principle                                     ::String" style="text;align=left;verticalAlign=top;spacingLeft=4;spacingRight=4;overflow=hidden;rotatable=0;points=[[0,0.5],[1,0.5]];portConstraint=eastwest;rounded=0;shadow=0;html=0;" parent="pRF9uQ5kpAVEQRunsSqT-186" vertex="1">
          <mxGeometry y="550" width="296" height="24" as="geometry" />
        </mxCell>
        <mxCell id="pRF9uQ5kpAVEQRunsSqT-207" value="+author                                        ::String" style="text;align=left;verticalAlign=top;spacingLeft=4;spacingRight=4;overflow=hidden;rotatable=0;points=[[0,0.5],[1,0.5]];portConstraint=eastwest;rounded=0;shadow=0;html=0;" parent="pRF9uQ5kpAVEQRunsSqT-186" vertex="1">
          <mxGeometry y="574" width="296" height="28" as="geometry" />
        </mxCell>
        <mxCell id="pRF9uQ5kpAVEQRunsSqT-206" value="+proofReader                              ::String" style="text;align=left;verticalAlign=top;spacingLeft=4;spacingRight=4;overflow=hidden;rotatable=0;points=[[0,0.5],[1,0.5]];portConstraint=eastwest;rounded=0;shadow=0;html=0;" parent="pRF9uQ5kpAVEQRunsSqT-186" vertex="1">
          <mxGeometry y="602" width="296" height="28" as="geometry" />
        </mxCell>
        <mxCell id="pRF9uQ5kpAVEQRunsSqT-208" value="+reviewer                                    ::String" style="text;align=left;verticalAlign=top;spacingLeft=4;spacingRight=4;overflow=hidden;rotatable=0;points=[[0,0.5],[1,0.5]];portConstraint=eastwest;rounded=0;shadow=0;html=0;" parent="pRF9uQ5kpAVEQRunsSqT-186" vertex="1">
          <mxGeometry y="630" width="296" height="28" as="geometry" />
        </mxCell>
        <mxCell id="pRF9uQ5kpAVEQRunsSqT-209" value="+kind                                           ::String" style="text;align=left;verticalAlign=top;spacingLeft=4;spacingRight=4;overflow=hidden;rotatable=0;points=[[0,0.5],[1,0.5]];portConstraint=eastwest;rounded=0;shadow=0;html=0;" parent="pRF9uQ5kpAVEQRunsSqT-186" vertex="1">
          <mxGeometry y="658" width="296" height="28" as="geometry" />
        </mxCell>
        <mxCell id="pRF9uQ5kpAVEQRunsSqT-210" value="+keywords                                  ::String" style="text;align=left;verticalAlign=top;spacingLeft=4;spacingRight=4;overflow=hidden;rotatable=0;points=[[0,0.5],[1,0.5]];portConstraint=eastwest;rounded=0;shadow=0;html=0;" parent="pRF9uQ5kpAVEQRunsSqT-186" vertex="1">
          <mxGeometry y="686" width="296" height="28" as="geometry" />
        </mxCell>
        <mxCell id="pRF9uQ5kpAVEQRunsSqT-211" value="+date                                          ::Date" style="text;align=left;verticalAlign=top;spacingLeft=4;spacingRight=4;overflow=hidden;rotatable=0;points=[[0,0.5],[1,0.5]];portConstraint=eastwest;rounded=0;shadow=0;html=0;" parent="pRF9uQ5kpAVEQRunsSqT-186" vertex="1">
          <mxGeometry y="714" width="296" height="28" as="geometry" />
        </mxCell>
        <mxCell id="pRF9uQ5kpAVEQRunsSqT-212" value="Directory(目录实体类)&#xa;" style="swimlane;fontStyle=0;align=center;verticalAlign=top;childLayout=stackLayout;horizontal=1;startSize=26;horizontalStack=0;resizeParent=1;resizeLast=0;collapsible=1;marginBottom=0;rounded=0;shadow=0;strokeWidth=1;noLabel=0;resizable=1;movable=1;backgroundOutline=0;editable=1;moveCells=0;pointerEvents=1;deletable=1;cloneable=1;rotatable=1;glass=0;fillColor=#dae8fc;strokeColor=#6c8ebf;" parent="WIyWlLk6GJQsqaUBKTNV-1" vertex="1">
          <mxGeometry x="820" y="885" width="306" height="93" as="geometry">
            <mxRectangle x="130" y="380" width="160" height="26" as="alternateBounds" />
          </mxGeometry>
        </mxCell>
        <mxCell id="pRF9uQ5kpAVEQRunsSqT-213" value="+from                                         ::Directory" style="text;align=left;verticalAlign=top;spacingLeft=4;spacingRight=4;overflow=hidden;rotatable=0;points=[[0,0.5],[1,0.5]];portConstraint=eastwest;rounded=0;shadow=0;html=0;" parent="pRF9uQ5kpAVEQRunsSqT-212" vertex="1">
          <mxGeometry y="26" width="306" height="28" as="geometry" />
        </mxCell>
        <mxCell id="pRF9uQ5kpAVEQRunsSqT-214" value="+isEmpty                                   ::boolean" style="text;align=left;verticalAlign=top;spacingLeft=4;spacingRight=4;overflow=hidden;rotatable=0;points=[[0,0.5],[1,0.5]];portConstraint=eastwest;rounded=0;shadow=0;html=0;" parent="pRF9uQ5kpAVEQRunsSqT-212" vertex="1">
          <mxGeometry y="54" width="306" height="28" as="geometry" />
        </mxCell>
        <mxCell id="pRF9uQ5kpAVEQRunsSqT-397" value="" style="edgeStyle=orthogonalEdgeStyle;rounded=0;orthogonalLoop=1;jettySize=auto;html=1;" parent="WIyWlLk6GJQsqaUBKTNV-1" source="pRF9uQ5kpAVEQRunsSqT-245" edge="1">
          <mxGeometry relative="1" as="geometry">
            <mxPoint x="1126" y="938" as="targetPoint" />
            <Array as="points">
              <mxPoint x="1190" y="938" />
              <mxPoint x="1190" y="938" />
            </Array>
          </mxGeometry>
        </mxCell>
        <mxCell id="pRF9uQ5kpAVEQRunsSqT-245" value="File(文件实体类)&#xa;" style="swimlane;fontStyle=0;align=center;verticalAlign=top;childLayout=stackLayout;horizontal=1;startSize=26;horizontalStack=0;resizeParent=1;resizeLast=0;collapsible=1;marginBottom=0;rounded=0;shadow=0;strokeWidth=1;noLabel=0;resizable=1;movable=1;backgroundOutline=0;editable=1;moveCells=0;pointerEvents=1;deletable=1;cloneable=1;rotatable=1;glass=0;fillColor=#dae8fc;strokeColor=#6c8ebf;" parent="WIyWlLk6GJQsqaUBKTNV-1" vertex="1">
          <mxGeometry x="1226" y="888" width="296" height="94" as="geometry">
            <mxRectangle x="130" y="380" width="160" height="26" as="alternateBounds" />
          </mxGeometry>
        </mxCell>
        <mxCell id="pRF9uQ5kpAVEQRunsSqT-246" value="+from                                         ::File" style="text;align=left;verticalAlign=top;spacingLeft=4;spacingRight=4;overflow=hidden;rotatable=0;points=[[0,0.5],[1,0.5]];portConstraint=eastwest;rounded=0;shadow=0;html=0;" parent="pRF9uQ5kpAVEQRunsSqT-245" vertex="1">
          <mxGeometry y="26" width="296" height="28" as="geometry" />
        </mxCell>
        <mxCell id="pRF9uQ5kpAVEQRunsSqT-247" value="+uri                                            ::String" style="text;align=left;verticalAlign=top;spacingLeft=4;spacingRight=4;overflow=hidden;rotatable=0;points=[[0,0.5],[1,0.5]];portConstraint=eastwest;rounded=0;shadow=0;html=0;" parent="pRF9uQ5kpAVEQRunsSqT-245" vertex="1">
          <mxGeometry y="54" width="296" height="28" as="geometry" />
        </mxCell>
        <mxCell id="q9hhWlFy8ux0YNahk4jD-76" value="" style="edgeStyle=orthogonalEdgeStyle;rounded=0;orthogonalLoop=1;jettySize=auto;html=1;entryX=0;entryY=0.5;entryDx=0;entryDy=0;" edge="1" parent="WIyWlLk6GJQsqaUBKTNV-1" source="pRF9uQ5kpAVEQRunsSqT-250" target="pRF9uQ5kpAVEQRunsSqT-398">
          <mxGeometry relative="1" as="geometry">
            <mxPoint x="1619.9999999999995" y="239" as="targetPoint" />
          </mxGeometry>
        </mxCell>
        <mxCell id="q9hhWlFy8ux0YNahk4jD-95" value="" style="edgeStyle=orthogonalEdgeStyle;rounded=0;orthogonalLoop=1;jettySize=auto;html=1;entryX=1;entryY=0.5;entryDx=0;entryDy=0;exitX=0;exitY=0.5;exitDx=0;exitDy=0;" edge="1" parent="WIyWlLk6GJQsqaUBKTNV-1" source="pRF9uQ5kpAVEQRunsSqT-260" target="pRF9uQ5kpAVEQRunsSqT-278">
          <mxGeometry relative="1" as="geometry">
            <mxPoint x="1410" y="-112" as="targetPoint" />
          </mxGeometry>
        </mxCell>
        <mxCell id="pRF9uQ5kpAVEQRunsSqT-250" value="User(用户实体类)&#xa;" style="swimlane;fontStyle=0;align=center;verticalAlign=top;childLayout=stackLayout;horizontal=1;startSize=26;horizontalStack=0;resizeParent=1;resizeLast=0;collapsible=1;marginBottom=0;rounded=0;shadow=0;strokeWidth=1;noLabel=0;resizable=1;movable=1;backgroundOutline=0;editable=1;moveCells=0;pointerEvents=1;deletable=1;cloneable=1;rotatable=1;glass=0;fillColor=#dae8fc;strokeColor=#6c8ebf;" parent="WIyWlLk6GJQsqaUBKTNV-1" vertex="1">
          <mxGeometry x="1250" y="-367" width="296" height="510" as="geometry">
            <mxRectangle x="130" y="380" width="160" height="26" as="alternateBounds" />
          </mxGeometry>
        </mxCell>
        <mxCell id="pRF9uQ5kpAVEQRunsSqT-251" value="+id                                             ::Long" style="text;align=left;verticalAlign=top;spacingLeft=4;spacingRight=4;overflow=hidden;rotatable=0;points=[[0,0.5],[1,0.5]];portConstraint=eastwest;rounded=0;shadow=0;html=0;" parent="pRF9uQ5kpAVEQRunsSqT-250" vertex="1">
          <mxGeometry y="26" width="296" height="28" as="geometry" />
        </mxCell>
        <mxCell id="pRF9uQ5kpAVEQRunsSqT-252" value="+username                                ::String" style="text;align=left;verticalAlign=top;spacingLeft=4;spacingRight=4;overflow=hidden;rotatable=0;points=[[0,0.5],[1,0.5]];portConstraint=eastwest;rounded=0;shadow=0;html=0;" parent="pRF9uQ5kpAVEQRunsSqT-250" vertex="1">
          <mxGeometry y="54" width="296" height="26" as="geometry" />
        </mxCell>
        <mxCell id="pRF9uQ5kpAVEQRunsSqT-253" value="+password                                ::String" style="text;align=left;verticalAlign=top;spacingLeft=4;spacingRight=4;overflow=hidden;rotatable=0;points=[[0,0.5],[1,0.5]];portConstraint=eastwest;rounded=0;shadow=0;html=0;" parent="pRF9uQ5kpAVEQRunsSqT-250" vertex="1">
          <mxGeometry y="80" width="296" height="28" as="geometry" />
        </mxCell>
        <mxCell id="pRF9uQ5kpAVEQRunsSqT-254" value="+sex                                          ::String" style="text;align=left;verticalAlign=top;spacingLeft=4;spacingRight=4;overflow=hidden;rotatable=0;points=[[0,0.5],[1,0.5]];portConstraint=eastwest;rounded=0;shadow=0;html=0;" parent="pRF9uQ5kpAVEQRunsSqT-250" vertex="1">
          <mxGeometry y="108" width="296" height="28" as="geometry" />
        </mxCell>
        <mxCell id="pRF9uQ5kpAVEQRunsSqT-255" value="+salt                                          ::String" style="text;align=left;verticalAlign=top;spacingLeft=4;spacingRight=4;overflow=hidden;rotatable=0;points=[[0,0.5],[1,0.5]];portConstraint=eastwest;rounded=0;shadow=0;html=0;" parent="pRF9uQ5kpAVEQRunsSqT-250" vertex="1">
          <mxGeometry y="136" width="296" height="28" as="geometry" />
        </mxCell>
        <mxCell id="pRF9uQ5kpAVEQRunsSqT-256" value="+name                                       ::String" style="text;align=left;verticalAlign=top;spacingLeft=4;spacingRight=4;overflow=hidden;rotatable=0;points=[[0,0.5],[1,0.5]];portConstraint=eastwest;rounded=0;shadow=0;html=0;" parent="pRF9uQ5kpAVEQRunsSqT-250" vertex="1">
          <mxGeometry y="164" width="296" height="24" as="geometry" />
        </mxCell>
        <mxCell id="pRF9uQ5kpAVEQRunsSqT-257" value="+email                                       ::String" style="text;align=left;verticalAlign=top;spacingLeft=4;spacingRight=4;overflow=hidden;rotatable=0;points=[[0,0.5],[1,0.5]];portConstraint=eastwest;rounded=0;shadow=0;html=0;" parent="pRF9uQ5kpAVEQRunsSqT-250" vertex="1">
          <mxGeometry y="188" width="296" height="28" as="geometry" />
        </mxCell>
        <mxCell id="pRF9uQ5kpAVEQRunsSqT-258" value="+phone                                     ::String" style="text;align=left;verticalAlign=top;spacingLeft=4;spacingRight=4;overflow=hidden;rotatable=0;points=[[0,0.5],[1,0.5]];portConstraint=eastwest;rounded=0;shadow=0;html=0;" parent="pRF9uQ5kpAVEQRunsSqT-250" vertex="1">
          <mxGeometry y="216" width="296" height="28" as="geometry" />
        </mxCell>
        <mxCell id="pRF9uQ5kpAVEQRunsSqT-259" value="+department                             ::String" style="text;align=left;verticalAlign=top;spacingLeft=4;spacingRight=4;overflow=hidden;rotatable=0;points=[[0,0.5],[1,0.5]];portConstraint=eastwest;rounded=0;shadow=0;html=0;" parent="pRF9uQ5kpAVEQRunsSqT-250" vertex="1">
          <mxGeometry y="244" width="296" height="28" as="geometry" />
        </mxCell>
        <mxCell id="pRF9uQ5kpAVEQRunsSqT-260" value="+company                                ::String" style="text;align=left;verticalAlign=top;spacingLeft=4;spacingRight=4;overflow=hidden;rotatable=0;points=[[0,0.5],[1,0.5]];portConstraint=eastwest;rounded=0;shadow=0;html=0;" parent="pRF9uQ5kpAVEQRunsSqT-250" vertex="1">
          <mxGeometry y="272" width="296" height="28" as="geometry" />
        </mxCell>
        <mxCell id="pRF9uQ5kpAVEQRunsSqT-261" value="+address                                  ::String" style="text;align=left;verticalAlign=top;spacingLeft=4;spacingRight=4;overflow=hidden;rotatable=0;points=[[0,0.5],[1,0.5]];portConstraint=eastwest;rounded=0;shadow=0;html=0;" parent="pRF9uQ5kpAVEQRunsSqT-250" vertex="1">
          <mxGeometry y="300" width="296" height="28" as="geometry" />
        </mxCell>
        <mxCell id="pRF9uQ5kpAVEQRunsSqT-262" value="+avatar                                     ::String" style="text;align=left;verticalAlign=top;spacingLeft=4;spacingRight=4;overflow=hidden;rotatable=0;points=[[0,0.5],[1,0.5]];portConstraint=eastwest;rounded=0;shadow=0;html=0;" parent="pRF9uQ5kpAVEQRunsSqT-250" vertex="1">
          <mxGeometry y="328" width="296" height="28" as="geometry" />
        </mxCell>
        <mxCell id="pRF9uQ5kpAVEQRunsSqT-263" value="+introduction                            ::String" style="text;align=left;verticalAlign=top;spacingLeft=4;spacingRight=4;overflow=hidden;rotatable=0;points=[[0,0.5],[1,0.5]];portConstraint=eastwest;rounded=0;shadow=0;html=0;" parent="pRF9uQ5kpAVEQRunsSqT-250" vertex="1">
          <mxGeometry y="356" width="296" height="28" as="geometry" />
        </mxCell>
        <mxCell id="pRF9uQ5kpAVEQRunsSqT-264" value="+regtime                                   ::Date" style="text;align=left;verticalAlign=top;spacingLeft=4;spacingRight=4;overflow=hidden;rotatable=0;points=[[0,0.5],[1,0.5]];portConstraint=eastwest;rounded=0;shadow=0;html=0;" parent="pRF9uQ5kpAVEQRunsSqT-250" vertex="1">
          <mxGeometry y="384" width="296" height="28" as="geometry" />
        </mxCell>
        <mxCell id="pRF9uQ5kpAVEQRunsSqT-265" value="+enable                                    ::boolean" style="text;align=left;verticalAlign=top;spacingLeft=4;spacingRight=4;overflow=hidden;rotatable=0;points=[[0,0.5],[1,0.5]];portConstraint=eastwest;rounded=0;shadow=0;html=0;" parent="pRF9uQ5kpAVEQRunsSqT-250" vertex="1">
          <mxGeometry y="412" width="296" height="28" as="geometry" />
        </mxCell>
        <mxCell id="pRF9uQ5kpAVEQRunsSqT-266" value="+role                                         ::Role" style="text;align=left;verticalAlign=top;spacingLeft=4;spacingRight=4;overflow=hidden;rotatable=0;points=[[0,0.5],[1,0.5]];portConstraint=eastwest;rounded=0;shadow=0;html=0;" parent="pRF9uQ5kpAVEQRunsSqT-250" vertex="1">
          <mxGeometry y="440" width="296" height="28" as="geometry" />
        </mxCell>
        <mxCell id="pRF9uQ5kpAVEQRunsSqT-267" value="+token                                      ::String" style="text;align=left;verticalAlign=top;spacingLeft=4;spacingRight=4;overflow=hidden;rotatable=0;points=[[0,0.5],[1,0.5]];portConstraint=eastwest;rounded=0;shadow=0;html=0;" parent="pRF9uQ5kpAVEQRunsSqT-250" vertex="1">
          <mxGeometry y="468" width="296" height="28" as="geometry" />
        </mxCell>
        <mxCell id="q9hhWlFy8ux0YNahk4jD-36" value="" style="edgeStyle=orthogonalEdgeStyle;rounded=0;orthogonalLoop=1;jettySize=auto;html=1;entryX=1;entryY=0.5;entryDx=0;entryDy=0;exitX=0;exitY=0.5;exitDx=0;exitDy=0;" edge="1" parent="WIyWlLk6GJQsqaUBKTNV-1" source="pRF9uQ5kpAVEQRunsSqT-278" target="pRF9uQ5kpAVEQRunsSqT-299">
          <mxGeometry relative="1" as="geometry">
            <mxPoint x="1014" y="200" as="targetPoint" />
            <Array as="points">
              <mxPoint x="880" y="220" />
            </Array>
          </mxGeometry>
        </mxCell>
        <mxCell id="pRF9uQ5kpAVEQRunsSqT-276" value="UserRole(用户角色实体类)&#xa;" style="swimlane;fontStyle=0;align=center;verticalAlign=top;childLayout=stackLayout;horizontal=1;startSize=26;horizontalStack=0;resizeParent=1;resizeLast=0;collapsible=1;marginBottom=0;rounded=0;shadow=0;strokeWidth=1;noLabel=0;resizable=1;movable=1;backgroundOutline=0;editable=1;moveCells=0;pointerEvents=1;deletable=1;cloneable=1;rotatable=1;glass=0;fillColor=#dae8fc;strokeColor=#6c8ebf;" parent="WIyWlLk6GJQsqaUBKTNV-1" vertex="1">
          <mxGeometry x="880" y="170" width="296" height="120" as="geometry">
            <mxRectangle x="130" y="380" width="160" height="26" as="alternateBounds" />
          </mxGeometry>
        </mxCell>
        <mxCell id="pRF9uQ5kpAVEQRunsSqT-277" value="+id                                                    ::int" style="text;align=left;verticalAlign=top;spacingLeft=4;spacingRight=4;overflow=hidden;rotatable=0;points=[[0,0.5],[1,0.5]];portConstraint=eastwest;rounded=0;shadow=0;html=0;" parent="pRF9uQ5kpAVEQRunsSqT-276" vertex="1">
          <mxGeometry y="26" width="296" height="28" as="geometry" />
        </mxCell>
        <mxCell id="pRF9uQ5kpAVEQRunsSqT-278" value="+rid                                                   ::int" style="text;align=left;verticalAlign=top;spacingLeft=4;spacingRight=4;overflow=hidden;rotatable=0;points=[[0,0.5],[1,0.5]];portConstraint=eastwest;rounded=0;shadow=0;html=0;" parent="pRF9uQ5kpAVEQRunsSqT-276" vertex="1">
          <mxGeometry y="54" width="296" height="26" as="geometry" />
        </mxCell>
        <mxCell id="pRF9uQ5kpAVEQRunsSqT-279" value="+uid                                                  ::int" style="text;align=left;verticalAlign=top;spacingLeft=4;spacingRight=4;overflow=hidden;rotatable=0;points=[[0,0.5],[1,0.5]];portConstraint=eastwest;rounded=0;shadow=0;html=0;" parent="pRF9uQ5kpAVEQRunsSqT-276" vertex="1">
          <mxGeometry y="80" width="296" height="28" as="geometry" />
        </mxCell>
        <mxCell id="pRF9uQ5kpAVEQRunsSqT-294" value="Role(角色实体类)&#xa;" style="swimlane;fontStyle=0;align=center;verticalAlign=top;childLayout=stackLayout;horizontal=1;startSize=26;horizontalStack=0;resizeParent=1;resizeLast=0;collapsible=1;marginBottom=0;rounded=0;shadow=0;strokeWidth=1;noLabel=0;resizable=1;movable=1;backgroundOutline=0;editable=1;moveCells=0;pointerEvents=1;deletable=1;cloneable=1;rotatable=1;glass=0;fillColor=#dae8fc;strokeColor=#6c8ebf;" parent="WIyWlLk6GJQsqaUBKTNV-1" vertex="1">
          <mxGeometry x="490" y="70" width="300" height="260" as="geometry">
            <mxRectangle x="130" y="380" width="160" height="26" as="alternateBounds" />
          </mxGeometry>
        </mxCell>
        <mxCell id="pRF9uQ5kpAVEQRunsSqT-295" value="+id                                               ::int" style="text;align=left;verticalAlign=top;spacingLeft=4;spacingRight=4;overflow=hidden;rotatable=0;points=[[0,0.5],[1,0.5]];portConstraint=eastwest;rounded=0;shadow=0;html=0;" parent="pRF9uQ5kpAVEQRunsSqT-294" vertex="1">
          <mxGeometry y="26" width="300" height="28" as="geometry" />
        </mxCell>
        <mxCell id="pRF9uQ5kpAVEQRunsSqT-296" value="+name                                         ::String" style="text;align=left;verticalAlign=top;spacingLeft=4;spacingRight=4;overflow=hidden;rotatable=0;points=[[0,0.5],[1,0.5]];portConstraint=eastwest;rounded=0;shadow=0;html=0;" parent="pRF9uQ5kpAVEQRunsSqT-294" vertex="1">
          <mxGeometry y="54" width="300" height="26" as="geometry" />
        </mxCell>
        <mxCell id="pRF9uQ5kpAVEQRunsSqT-297" value="+nameZh                                    ::String" style="text;align=left;verticalAlign=top;spacingLeft=4;spacingRight=4;overflow=hidden;rotatable=0;points=[[0,0.5],[1,0.5]];portConstraint=eastwest;rounded=0;shadow=0;html=0;" parent="pRF9uQ5kpAVEQRunsSqT-294" vertex="1">
          <mxGeometry y="80" width="300" height="28" as="geometry" />
        </mxCell>
        <mxCell id="pRF9uQ5kpAVEQRunsSqT-298" value="+desription                                  ::String" style="text;align=left;verticalAlign=top;spacingLeft=4;spacingRight=4;overflow=hidden;rotatable=0;points=[[0,0.5],[1,0.5]];portConstraint=eastwest;rounded=0;shadow=0;html=0;" parent="pRF9uQ5kpAVEQRunsSqT-294" vertex="1">
          <mxGeometry y="108" width="300" height="28" as="geometry" />
        </mxCell>
        <mxCell id="pRF9uQ5kpAVEQRunsSqT-299" value="+projectId                                    ::int" style="text;align=left;verticalAlign=top;spacingLeft=4;spacingRight=4;overflow=hidden;rotatable=0;points=[[0,0.5],[1,0.5]];portConstraint=eastwest;rounded=0;shadow=0;html=0;" parent="pRF9uQ5kpAVEQRunsSqT-294" vertex="1">
          <mxGeometry y="136" width="300" height="28" as="geometry" />
        </mxCell>
        <mxCell id="pRF9uQ5kpAVEQRunsSqT-300" value="+enable                                       ::boolean" style="text;align=left;verticalAlign=top;spacingLeft=4;spacingRight=4;overflow=hidden;rotatable=0;points=[[0,0.5],[1,0.5]];portConstraint=eastwest;rounded=0;shadow=0;html=0;" parent="pRF9uQ5kpAVEQRunsSqT-294" vertex="1">
          <mxGeometry y="164" width="300" height="24" as="geometry" />
        </mxCell>
        <mxCell id="pRF9uQ5kpAVEQRunsSqT-301" value="+perms                                       ::List&lt;Permission&gt;" style="text;align=left;verticalAlign=top;spacingLeft=4;spacingRight=4;overflow=hidden;rotatable=0;points=[[0,0.5],[1,0.5]];portConstraint=eastwest;rounded=0;shadow=0;html=0;" parent="pRF9uQ5kpAVEQRunsSqT-294" vertex="1">
          <mxGeometry y="188" width="300" height="28" as="geometry" />
        </mxCell>
        <mxCell id="pRF9uQ5kpAVEQRunsSqT-302" value="+menus                                      ::List&lt;Menu&gt;" style="text;align=left;verticalAlign=top;spacingLeft=4;spacingRight=4;overflow=hidden;rotatable=0;points=[[0,0.5],[1,0.5]];portConstraint=eastwest;rounded=0;shadow=0;html=0;" parent="pRF9uQ5kpAVEQRunsSqT-294" vertex="1">
          <mxGeometry y="216" width="300" height="28" as="geometry" />
        </mxCell>
        <mxCell id="pRF9uQ5kpAVEQRunsSqT-429" value="" style="edgeStyle=orthogonalEdgeStyle;rounded=0;orthogonalLoop=1;jettySize=auto;html=1;entryX=1.003;entryY=-0.095;entryDx=0;entryDy=0;entryPerimeter=0;exitX=0.5;exitY=1;exitDx=0;exitDy=0;" parent="WIyWlLk6GJQsqaUBKTNV-1" source="pRF9uQ5kpAVEQRunsSqT-312" edge="1" target="pRF9uQ5kpAVEQRunsSqT-297">
          <mxGeometry relative="1" as="geometry">
            <mxPoint x="1260" y="60" as="targetPoint" />
            <Array as="points">
              <mxPoint x="1018" y="147" />
            </Array>
          </mxGeometry>
        </mxCell>
        <mxCell id="pRF9uQ5kpAVEQRunsSqT-312" value="RolePermission(用户权限实体类)&#xa;" style="swimlane;fontStyle=0;align=center;verticalAlign=top;childLayout=stackLayout;horizontal=1;startSize=26;horizontalStack=0;resizeParent=1;resizeLast=0;collapsible=1;marginBottom=0;rounded=0;shadow=0;strokeWidth=1;noLabel=0;resizable=1;movable=1;backgroundOutline=0;editable=1;moveCells=0;pointerEvents=1;deletable=1;cloneable=1;rotatable=1;glass=0;fillColor=#dae8fc;strokeColor=#6c8ebf;" parent="WIyWlLk6GJQsqaUBKTNV-1" vertex="1">
          <mxGeometry x="870" y="-110" width="296" height="168" as="geometry">
            <mxRectangle x="130" y="380" width="160" height="26" as="alternateBounds" />
          </mxGeometry>
        </mxCell>
        <mxCell id="pRF9uQ5kpAVEQRunsSqT-313" value="+id                                                    ::int" style="text;align=left;verticalAlign=top;spacingLeft=4;spacingRight=4;overflow=hidden;rotatable=0;points=[[0,0.5],[1,0.5]];portConstraint=eastwest;rounded=0;shadow=0;html=0;" parent="pRF9uQ5kpAVEQRunsSqT-312" vertex="1">
          <mxGeometry y="26" width="296" height="28" as="geometry" />
        </mxCell>
        <mxCell id="pRF9uQ5kpAVEQRunsSqT-314" value="+rid                                                   ::int" style="text;align=left;verticalAlign=top;spacingLeft=4;spacingRight=4;overflow=hidden;rotatable=0;points=[[0,0.5],[1,0.5]];portConstraint=eastwest;rounded=0;shadow=0;html=0;" parent="pRF9uQ5kpAVEQRunsSqT-312" vertex="1">
          <mxGeometry y="54" width="296" height="26" as="geometry" />
        </mxCell>
        <mxCell id="pRF9uQ5kpAVEQRunsSqT-315" value="+pid                                                  ::int" style="text;align=left;verticalAlign=top;spacingLeft=4;spacingRight=4;overflow=hidden;rotatable=0;points=[[0,0.5],[1,0.5]];portConstraint=eastwest;rounded=0;shadow=0;html=0;" parent="pRF9uQ5kpAVEQRunsSqT-312" vertex="1">
          <mxGeometry y="80" width="296" height="28" as="geometry" />
        </mxCell>
        <mxCell id="q9hhWlFy8ux0YNahk4jD-5" value="" style="edgeStyle=orthogonalEdgeStyle;rounded=0;orthogonalLoop=1;jettySize=auto;html=1;entryX=0;entryY=0.5;entryDx=0;entryDy=0;" edge="1" parent="WIyWlLk6GJQsqaUBKTNV-1" target="pRF9uQ5kpAVEQRunsSqT-298">
          <mxGeometry relative="1" as="geometry">
            <mxPoint x="460" y="192" as="sourcePoint" />
            <mxPoint x="396" y="185" as="targetPoint" />
            <Array as="points">
              <mxPoint x="430" y="192" />
              <mxPoint x="430" y="192" />
            </Array>
          </mxGeometry>
        </mxCell>
        <mxCell id="pRF9uQ5kpAVEQRunsSqT-321" value="Permission(用户角色实体类)&#xa;" style="swimlane;fontStyle=0;align=center;verticalAlign=top;childLayout=stackLayout;horizontal=1;startSize=26;horizontalStack=0;resizeParent=1;resizeLast=0;collapsible=1;marginBottom=0;rounded=0;shadow=0;strokeWidth=1;noLabel=0;resizable=1;movable=1;backgroundOutline=0;editable=1;moveCells=0;pointerEvents=1;deletable=1;cloneable=1;rotatable=1;glass=0;fillColor=#dae8fc;strokeColor=#6c8ebf;" parent="WIyWlLk6GJQsqaUBKTNV-1" vertex="1">
          <mxGeometry x="140" y="110" width="296" height="150" as="geometry">
            <mxRectangle x="130" y="380" width="160" height="26" as="alternateBounds" />
          </mxGeometry>
        </mxCell>
        <mxCell id="pRF9uQ5kpAVEQRunsSqT-322" value="+id                                                    ::int" style="text;align=left;verticalAlign=top;spacingLeft=4;spacingRight=4;overflow=hidden;rotatable=0;points=[[0,0.5],[1,0.5]];portConstraint=eastwest;rounded=0;shadow=0;html=0;" parent="pRF9uQ5kpAVEQRunsSqT-321" vertex="1">
          <mxGeometry y="26" width="296" height="28" as="geometry" />
        </mxCell>
        <mxCell id="pRF9uQ5kpAVEQRunsSqT-323" value="+name                                              ::String" style="text;align=left;verticalAlign=top;spacingLeft=4;spacingRight=4;overflow=hidden;rotatable=0;points=[[0,0.5],[1,0.5]];portConstraint=eastwest;rounded=0;shadow=0;html=0;" parent="pRF9uQ5kpAVEQRunsSqT-321" vertex="1">
          <mxGeometry y="54" width="296" height="26" as="geometry" />
        </mxCell>
        <mxCell id="pRF9uQ5kpAVEQRunsSqT-324" value="+desc_                                             ::String" style="text;align=left;verticalAlign=top;spacingLeft=4;spacingRight=4;overflow=hidden;rotatable=0;points=[[0,0.5],[1,0.5]];portConstraint=eastwest;rounded=0;shadow=0;html=0;" parent="pRF9uQ5kpAVEQRunsSqT-321" vertex="1">
          <mxGeometry y="80" width="296" height="28" as="geometry" />
        </mxCell>
        <mxCell id="pRF9uQ5kpAVEQRunsSqT-325" value="+url                                                   ::String" style="text;align=left;verticalAlign=top;spacingLeft=4;spacingRight=4;overflow=hidden;rotatable=0;points=[[0,0.5],[1,0.5]];portConstraint=eastwest;rounded=0;shadow=0;html=0;" parent="pRF9uQ5kpAVEQRunsSqT-321" vertex="1">
          <mxGeometry y="108" width="296" height="28" as="geometry" />
        </mxCell>
        <mxCell id="q9hhWlFy8ux0YNahk4jD-44" value="" style="edgeStyle=orthogonalEdgeStyle;rounded=0;orthogonalLoop=1;jettySize=auto;html=1;entryX=0;entryY=0.5;entryDx=0;entryDy=0;" edge="1" parent="WIyWlLk6GJQsqaUBKTNV-1" source="pRF9uQ5kpAVEQRunsSqT-346" target="pRF9uQ5kpAVEQRunsSqT-440">
          <mxGeometry relative="1" as="geometry">
            <mxPoint x="448.00000000000045" y="1372.0000000000005" as="targetPoint" />
            <Array as="points">
              <mxPoint x="420" y="697" />
              <mxPoint x="420" y="697" />
            </Array>
          </mxGeometry>
        </mxCell>
        <mxCell id="pRF9uQ5kpAVEQRunsSqT-346" value="PathInfo(用户角色实体类)&#xa;" style="swimlane;fontStyle=0;align=center;verticalAlign=top;childLayout=stackLayout;horizontal=1;startSize=26;horizontalStack=0;resizeParent=1;resizeLast=0;collapsible=1;marginBottom=0;rounded=0;shadow=0;strokeWidth=1;noLabel=0;resizable=1;movable=1;backgroundOutline=0;editable=1;moveCells=0;pointerEvents=1;deletable=1;cloneable=1;rotatable=1;glass=0;fillColor=#dae8fc;strokeColor=#6c8ebf;" parent="WIyWlLk6GJQsqaUBKTNV-1" vertex="1">
          <mxGeometry x="100" y="642" width="296" height="170" as="geometry">
            <mxRectangle x="130" y="380" width="160" height="26" as="alternateBounds" />
          </mxGeometry>
        </mxCell>
        <mxCell id="pRF9uQ5kpAVEQRunsSqT-347" value="+id                                                    ::Long" style="text;align=left;verticalAlign=top;spacingLeft=4;spacingRight=4;overflow=hidden;rotatable=0;points=[[0,0.5],[1,0.5]];portConstraint=eastwest;rounded=0;shadow=0;html=0;" parent="pRF9uQ5kpAVEQRunsSqT-346" vertex="1">
          <mxGeometry y="26" width="296" height="28" as="geometry" />
        </mxCell>
        <mxCell id="pRF9uQ5kpAVEQRunsSqT-348" value="+generateDate                                 ::Date" style="text;align=left;verticalAlign=top;spacingLeft=4;spacingRight=4;overflow=hidden;rotatable=0;points=[[0,0.5],[1,0.5]];portConstraint=eastwest;rounded=0;shadow=0;html=0;" parent="pRF9uQ5kpAVEQRunsSqT-346" vertex="1">
          <mxGeometry y="54" width="296" height="26" as="geometry" />
        </mxCell>
        <mxCell id="pRF9uQ5kpAVEQRunsSqT-350" value="+editor                                              ::String" style="text;align=left;verticalAlign=top;spacingLeft=4;spacingRight=4;overflow=hidden;rotatable=0;points=[[0,0.5],[1,0.5]];portConstraint=eastwest;rounded=0;shadow=0;html=0;" parent="pRF9uQ5kpAVEQRunsSqT-346" vertex="1">
          <mxGeometry y="80" width="296" height="26" as="geometry" />
        </mxCell>
        <mxCell id="pRF9uQ5kpAVEQRunsSqT-351" value="+proofReader                                   ::String" style="text;align=left;verticalAlign=top;spacingLeft=4;spacingRight=4;overflow=hidden;rotatable=0;points=[[0,0.5],[1,0.5]];portConstraint=eastwest;rounded=0;shadow=0;html=0;" parent="pRF9uQ5kpAVEQRunsSqT-346" vertex="1">
          <mxGeometry y="106" width="296" height="26" as="geometry" />
        </mxCell>
        <mxCell id="pRF9uQ5kpAVEQRunsSqT-352" value="+reviewer                                          ::String" style="text;align=left;verticalAlign=top;spacingLeft=4;spacingRight=4;overflow=hidden;rotatable=0;points=[[0,0.5],[1,0.5]];portConstraint=eastwest;rounded=0;shadow=0;html=0;" parent="pRF9uQ5kpAVEQRunsSqT-346" vertex="1">
          <mxGeometry y="132" width="296" height="26" as="geometry" />
        </mxCell>
        <mxCell id="pRF9uQ5kpAVEQRunsSqT-398" value="ForgeUser(用户锁死实体类)&#xa;" style="swimlane;fontStyle=0;align=center;verticalAlign=top;childLayout=stackLayout;horizontal=1;startSize=26;horizontalStack=0;resizeParent=1;resizeLast=0;collapsible=1;marginBottom=0;rounded=0;shadow=0;strokeWidth=1;noLabel=0;resizable=1;movable=1;backgroundOutline=0;editable=1;moveCells=0;pointerEvents=1;deletable=1;cloneable=1;rotatable=1;glass=0;fillColor=#dae8fc;strokeColor=#6c8ebf;" parent="WIyWlLk6GJQsqaUBKTNV-1" vertex="1">
          <mxGeometry x="1590" y="-167.5" width="296" height="111" as="geometry">
            <mxRectangle x="130" y="380" width="160" height="26" as="alternateBounds" />
          </mxGeometry>
        </mxCell>
        <mxCell id="pRF9uQ5kpAVEQRunsSqT-399" value="+id                                                    ::Long" style="text;align=left;verticalAlign=top;spacingLeft=4;spacingRight=4;overflow=hidden;rotatable=0;points=[[0,0.5],[1,0.5]];portConstraint=eastwest;rounded=0;shadow=0;html=0;" parent="pRF9uQ5kpAVEQRunsSqT-398" vertex="1">
          <mxGeometry y="26" width="296" height="28" as="geometry" />
        </mxCell>
        <mxCell id="pRF9uQ5kpAVEQRunsSqT-400" value="+username                                      ::String" style="text;align=left;verticalAlign=top;spacingLeft=4;spacingRight=4;overflow=hidden;rotatable=0;points=[[0,0.5],[1,0.5]];portConstraint=eastwest;rounded=0;shadow=0;html=0;" parent="pRF9uQ5kpAVEQRunsSqT-398" vertex="1">
          <mxGeometry y="54" width="296" height="26" as="geometry" />
        </mxCell>
        <mxCell id="q9hhWlFy8ux0YNahk4jD-57" value="" style="edgeStyle=orthogonalEdgeStyle;rounded=0;orthogonalLoop=1;jettySize=auto;html=1;entryX=0.5;entryY=1;entryDx=0;entryDy=0;" edge="1" parent="WIyWlLk6GJQsqaUBKTNV-1" source="q9hhWlFy8ux0YNahk4jD-45" target="pRF9uQ5kpAVEQRunsSqT-276">
          <mxGeometry relative="1" as="geometry">
            <mxPoint x="620" y="330" as="targetPoint" />
          </mxGeometry>
        </mxCell>
        <mxCell id="q9hhWlFy8ux0YNahk4jD-45" value="LoginController(登陆注册控制类)&#xa;" style="swimlane;fontStyle=0;align=center;verticalAlign=top;childLayout=stackLayout;horizontal=1;startSize=26;horizontalStack=0;resizeParent=1;resizeLast=0;collapsible=1;marginBottom=0;rounded=0;shadow=0;strokeWidth=1;fillColor=#d5e8d4;strokeColor=#82b366;" vertex="1" parent="WIyWlLk6GJQsqaUBKTNV-1">
          <mxGeometry x="510" y="380" width="220" height="166" as="geometry">
            <mxRectangle x="130" y="380" width="160" height="26" as="alternateBounds" />
          </mxGeometry>
        </mxCell>
        <mxCell id="q9hhWlFy8ux0YNahk4jD-46" value="+register()                 ::result" style="text;align=left;verticalAlign=top;spacingLeft=4;spacingRight=4;overflow=hidden;rotatable=0;points=[[0,0.5],[1,0.5]];portConstraint=eastwest;rounded=0;shadow=0;html=0;" vertex="1" parent="q9hhWlFy8ux0YNahk4jD-45">
          <mxGeometry y="26" width="220" height="28" as="geometry" />
        </mxCell>
        <mxCell id="q9hhWlFy8ux0YNahk4jD-47" value="+login()                      ::result" style="text;align=left;verticalAlign=top;spacingLeft=4;spacingRight=4;overflow=hidden;rotatable=0;points=[[0,0.5],[1,0.5]];portConstraint=eastwest;rounded=0;shadow=0;html=0;" vertex="1" parent="q9hhWlFy8ux0YNahk4jD-45">
          <mxGeometry y="54" width="220" height="28" as="geometry" />
        </mxCell>
        <mxCell id="q9hhWlFy8ux0YNahk4jD-48" value="+logout()                    ::result" style="text;align=left;verticalAlign=top;spacingLeft=4;spacingRight=4;overflow=hidden;rotatable=0;points=[[0,0.5],[1,0.5]];portConstraint=eastwest;rounded=0;shadow=0;html=0;" vertex="1" parent="q9hhWlFy8ux0YNahk4jD-45">
          <mxGeometry y="82" width="220" height="28" as="geometry" />
        </mxCell>
        <mxCell id="q9hhWlFy8ux0YNahk4jD-49" value="+getInfo()                   ::result" style="text;align=left;verticalAlign=top;spacingLeft=4;spacingRight=4;overflow=hidden;rotatable=0;points=[[0,0.5],[1,0.5]];portConstraint=eastwest;rounded=0;shadow=0;html=0;" vertex="1" parent="q9hhWlFy8ux0YNahk4jD-45">
          <mxGeometry y="110" width="220" height="28" as="geometry" />
        </mxCell>
        <mxCell id="q9hhWlFy8ux0YNahk4jD-50" value="+authentication()       ::result" style="text;align=left;verticalAlign=top;spacingLeft=4;spacingRight=4;overflow=hidden;rotatable=0;points=[[0,0.5],[1,0.5]];portConstraint=eastwest;rounded=0;shadow=0;html=0;" vertex="1" parent="q9hhWlFy8ux0YNahk4jD-45">
          <mxGeometry y="138" width="220" height="28" as="geometry" />
        </mxCell>
      </root>
    </mxGraphModel>
  </diagram>
</mxfile>
